<svg xmlns="http://www.w3.org/2000/svg" width="1165.15" height="200.41" viewBox="0 0 1165.15 200.41"><title>Asset 1</title><path d="M1124.71,96.63l-18.94-.29-30.89,44-31.29-44-31.31.06-.2-73.33v-.25a11.16,11.16,0,0,1,22.32,0h12.13a23.3,23.3,0,0,0-46.59,0l.2,73.6H972.28l5.87,12.15h22l.25,91.84h12.13V182h0l-.2-73.52h25l31.27,43.94v47.9h12.13V153.12L1112,108.57l12.56.19h.09a28.4,28.4,0,0,1,28.39,28.39v63.21h12.1V137.15A40.55,40.55,0,0,0,1124.71,96.63Z" fill="#3f3f3f"/><circle cx="1122.72" cy="149.73" r="11.65" fill="#d40054"/><polygon points="998.35 200.2 928.74 50.29 859.26 200.2 844.15 200.2 928.74 21.83 1013.22 200.2 998.35 200.2" fill="#d40054"/><path d="M241,186.23a16.22,16.22,0,0,1-6.38-1.23,14.36,14.36,0,0,1-5.13-3.59,16.66,16.66,0,0,1-3.44-5.82,22.9,22.9,0,0,1-1.26-7.92,21.92,21.92,0,0,1,1.36-7.93,18,18,0,0,1,3.62-5.82,15.15,15.15,0,0,1,5.23-3.56,16.7,16.7,0,0,1,6.21-1.2,24.65,24.65,0,0,1,3.64.25,21.63,21.63,0,0,1,2.87.64c.82.26,1.52.52,2.1.77a10.45,10.45,0,0,1,1.33.69l-1.12,3a20.51,20.51,0,0,0-3.26-1.51,16,16,0,0,0-10.72.38,11.67,11.67,0,0,0-4.18,3.18,13.93,13.93,0,0,0-2.54,4.87,22.13,22.13,0,0,0-.84,6.26,22.5,22.5,0,0,0,.84,6.38,13.81,13.81,0,0,0,2.49,4.85,11,11,0,0,0,4,3.08,13,13,0,0,0,5.46,1.07,20.76,20.76,0,0,0,5.66-.64,16,16,0,0,0,3.47-1.3l1,3a5.35,5.35,0,0,1-1.23.59A23.74,23.74,0,0,1,244.9,186,28.26,28.26,0,0,1,241,186.23Z" fill="#3f3f3f"/><path d="M259.78,172.18a16.57,16.57,0,0,1,1-6.07,13.48,13.48,0,0,1,2.62-4.34,10.17,10.17,0,0,1,3.69-2.59,11.42,11.42,0,0,1,4.28-.85,10,10,0,0,1,7.77,3.18q2.89,3.19,2.9,9.8v.82a2.76,2.76,0,0,1-.07.77H263.32c.1,3.25.9,5.74,2.41,7.49s3.9,2.61,7.18,2.61a14.26,14.26,0,0,0,4.31-.51,16.09,16.09,0,0,0,2.31-.87l.61,2.87a13.6,13.6,0,0,1-2.69,1,16.49,16.49,0,0,1-4.64.57,15.12,15.12,0,0,1-5.95-1,10.46,10.46,0,0,1-4.05-2.87,11.34,11.34,0,0,1-2.31-4.38A20.57,20.57,0,0,1,259.78,172.18Zm18.82-2.1a10.55,10.55,0,0,0-2-6.46,6.31,6.31,0,0,0-5.23-2.31,6.94,6.94,0,0,0-3.2.72A8.4,8.4,0,0,0,265.7,164a9.09,9.09,0,0,0-1.64,2.8,11.9,11.9,0,0,0-.69,3.33Z" fill="#3f3f3f"/><path d="M293.58,159.87c1-.27,2.32-.58,4-.92a31.72,31.72,0,0,1,6.15-.51,12.92,12.92,0,0,1,5,.87A7.77,7.77,0,0,1,312,161.8a10.14,10.14,0,0,1,1.72,3.87,22.17,22.17,0,0,1,.51,5v14.82h-3.33V171.72a26.38,26.38,0,0,0-.38-4.77,8,8,0,0,0-1.29-3.18,5,5,0,0,0-2.36-1.77,10.83,10.83,0,0,0-3.66-.54,29.32,29.32,0,0,0-4.08.26,13,13,0,0,0-2.23.46v23.28h-3.33Z" fill="#3f3f3f"/><path d="M330,158.94h10.56v2.82H330v14.1a14.58,14.58,0,0,0,.38,3.67,5.09,5.09,0,0,0,1.11,2.18,3.45,3.45,0,0,0,1.74,1,9.06,9.06,0,0,0,2.26.25,9.46,9.46,0,0,0,3.38-.49,13.24,13.24,0,0,0,2-.89l.82,2.77a11.5,11.5,0,0,1-2.51,1.05,12.59,12.59,0,0,1-3.9.59,11.41,11.41,0,0,1-4.13-.64,6,6,0,0,1-2.66-1.95,8,8,0,0,1-1.42-3.26,23,23,0,0,1-.41-4.61V151.16l3.34-.62Z" fill="#3f3f3f"/><path d="M359.84,158.44a18.88,18.88,0,0,1,3.1.25,10.7,10.7,0,0,1,2,.52l-.66,2.87a8.06,8.06,0,0,0-1.67-.44,20.31,20.31,0,0,0-3.31-.23,16.09,16.09,0,0,0-3.46.31,10.3,10.3,0,0,0-1.72.51v23.23h-3.33V160.18a24.38,24.38,0,0,1,3.54-1.15A21.75,21.75,0,0,1,359.84,158.44Z" fill="#3f3f3f"/><path d="M396.71,172.23a17.22,17.22,0,0,1-.9,5.7,12.68,12.68,0,0,1-2.51,4.36,11.73,11.73,0,0,1-16.58.81,10.32,10.32,0,0,1-.81-.81,13.06,13.06,0,0,1-2.51-4.35,18.47,18.47,0,0,1,0-11.39,13.12,13.12,0,0,1,2.51-4.38,11.31,11.31,0,0,1,3.82-2.82,12.33,12.33,0,0,1,9.75,0,11.31,11.31,0,0,1,3.82,2.82,12.86,12.86,0,0,1,2.51,4.38A17.14,17.14,0,0,1,396.71,172.23Zm-3.54,0a12.54,12.54,0,0,0-2.31-7.92,8.12,8.12,0,0,0-11.42-1.09,8.63,8.63,0,0,0-1.09,1.09,14.7,14.7,0,0,0,0,15.82,8.16,8.16,0,0,0,11.5,1,8.85,8.85,0,0,0,1-1,12.39,12.39,0,0,0,2.31-7.9Z" fill="#3f3f3f"/><path d="M436.86,186.23a14.87,14.87,0,0,1-6-1.07,10.39,10.39,0,0,1-4-3,12,12,0,0,1-2.23-4.43,21,21,0,0,1-.69-5.47V149.94h3.49v21.89a16.62,16.62,0,0,0,.69,5.06A9.64,9.64,0,0,0,430,180.4a7.46,7.46,0,0,0,3,2,11.82,11.82,0,0,0,7.79,0,7.46,7.46,0,0,0,3-2,9.64,9.64,0,0,0,1.92-3.51,16.62,16.62,0,0,0,.69-5.06V149.94h3.49v22.35a21,21,0,0,1-.69,5.47,12,12,0,0,1-2.23,4.43,10.39,10.39,0,0,1-4,3A15,15,0,0,1,436.86,186.23Z" fill="#3f3f3f"/><path d="M462.81,159.87c1-.27,2.33-.58,4-.92a31.76,31.76,0,0,1,6.16-.51,12.92,12.92,0,0,1,5,.87,7.77,7.77,0,0,1,3.23,2.49,10.14,10.14,0,0,1,1.72,3.87,22.17,22.17,0,0,1,.51,5v14.82H480.1V171.72a25.45,25.45,0,0,0-.39-4.77,7.88,7.88,0,0,0-1.28-3.18,5,5,0,0,0-2.36-1.77,10.85,10.85,0,0,0-3.67-.54,29.18,29.18,0,0,0-4.07.26,13,13,0,0,0-2.23.46v23.28h-3.34Z" fill="#3f3f3f"/><path d="M500.2,150.94a2.45,2.45,0,0,1-.72,1.87,2.53,2.53,0,0,1-3.49,0,2.81,2.81,0,0,1,0-3.74,2.55,2.55,0,0,1,3.49,0A2.48,2.48,0,0,1,500.2,150.94Zm-.77,34.51H496.1V158.94h3.33Z" fill="#3f3f3f"/><path d="M520.38,181.87c.72-1.46,1.46-3.15,2.21-5.05s1.48-3.86,2.19-5.9,1.35-4.08,2-6.15,1.11-4,1.52-5.82h3.34q-.93,3.66-2.07,7.18c-.76,2.36-1.56,4.66-2.4,6.92s-1.72,4.44-2.63,6.52-1.8,4.05-2.66,5.89h-3.11c-.89-1.84-1.79-3.81-2.68-5.89s-1.76-4.26-2.61-6.52-1.64-4.56-2.4-6.92-1.44-4.75-2.06-7.18h3.54c.41,1.81.91,3.75,1.52,5.82s1.25,4.12,2,6.15,1.43,4,2.19,5.9S519.66,180.4,520.38,181.87Z" fill="#3f3f3f"/><path d="M539.48,172.18a17,17,0,0,1,1-6.07,13.48,13.48,0,0,1,2.62-4.34,10.3,10.3,0,0,1,3.69-2.59,11.62,11.62,0,0,1,4.28-.85,10,10,0,0,1,7.77,3.18q2.89,3.19,2.9,9.8v.82a6.07,6.07,0,0,1-.08.77H543c.1,3.25.91,5.74,2.41,7.49s3.9,2.61,7.18,2.61a14.26,14.26,0,0,0,4.31-.51,16.09,16.09,0,0,0,2.31-.87l.61,2.87a13,13,0,0,1-2.69,1,16.49,16.49,0,0,1-4.64.57,15.34,15.34,0,0,1-6-1,10.58,10.58,0,0,1-4-2.87,11.34,11.34,0,0,1-2.31-4.38A20.55,20.55,0,0,1,539.48,172.18Zm18.82-2.1a10.52,10.52,0,0,0-1.94-6.46,6.37,6.37,0,0,0-5.24-2.31,7.07,7.07,0,0,0-3.2.72,8.23,8.23,0,0,0-2.46,1.92,9.09,9.09,0,0,0-1.64,2.8,11.18,11.18,0,0,0-.7,3.33Z" fill="#3f3f3f"/><path d="M582.31,158.44a18.88,18.88,0,0,1,3.1.25,10.7,10.7,0,0,1,2,.52l-.66,2.87a8.06,8.06,0,0,0-1.67-.44,20.31,20.31,0,0,0-3.31-.23,16.09,16.09,0,0,0-3.46.31,10.3,10.3,0,0,0-1.72.51v23.23h-3.33V160.18A24.38,24.38,0,0,1,576.8,159,21.75,21.75,0,0,1,582.31,158.44Z" fill="#3f3f3f"/><path d="M602,183.1a10.48,10.48,0,0,0,4.74-.94,3.3,3.3,0,0,0,1.87-3.21,4.7,4.7,0,0,0-.33-1.85,3.79,3.79,0,0,0-1.1-1.38,9.83,9.83,0,0,0-2-1.18c-.84-.38-1.87-.82-3.1-1.33q-1.49-.6-2.82-1.26a10.56,10.56,0,0,1-2.36-1.49,6.47,6.47,0,0,1-1.64-2,6,6,0,0,1-.62-2.87,6.5,6.5,0,0,1,2.44-5.24,10.28,10.28,0,0,1,6.69-2,18.32,18.32,0,0,1,4.49.47,14.52,14.52,0,0,1,2.49.82l-.77,3a21.9,21.9,0,0,0-2.08-.82,14.07,14.07,0,0,0-4.28-.51,10.14,10.14,0,0,0-2.13.23,5.59,5.59,0,0,0-1.77.72,4,4,0,0,0-1.23,1.23,3.46,3.46,0,0,0-.46,1.83,4.07,4.07,0,0,0,.41,1.85,4,4,0,0,0,1.2,1.36,9.86,9.86,0,0,0,2,1.1c.77.34,1.65.71,2.64,1.12s2,.83,2.95,1.25a11.23,11.23,0,0,1,2.49,1.54,7.08,7.08,0,0,1,1.74,2.15,6.67,6.67,0,0,1,.67,3.16,6.21,6.21,0,0,1-2.69,5.44,12.88,12.88,0,0,1-7.36,1.84,16.76,16.76,0,0,1-7.8-1.49l.88-3a4.07,4.07,0,0,0,.66.33,11.57,11.57,0,0,0,1.39.51,13.53,13.53,0,0,0,2.07.49A16,16,0,0,0,602,183.1Z" fill="#3f3f3f"/><path d="M626.72,150.94a2.45,2.45,0,0,1-.72,1.87,2.53,2.53,0,0,1-3.49,0,2.79,2.79,0,0,1,0-3.74,2.55,2.55,0,0,1,3.49,0A2.48,2.48,0,0,1,626.72,150.94ZM626,185.46h-3.34V158.94H626Z" fill="#3f3f3f"/><path d="M642,158.94h10.57v2.82H642v14.1a14.14,14.14,0,0,0,.39,3.67,5,5,0,0,0,1.1,2.18,3.52,3.52,0,0,0,1.74,1,9.06,9.06,0,0,0,2.26.25,9.46,9.46,0,0,0,3.38-.49,13.24,13.24,0,0,0,2-.89l.82,2.77a11.5,11.5,0,0,1-2.51,1.05,12.59,12.59,0,0,1-3.9.59,11.41,11.41,0,0,1-4.13-.64,6,6,0,0,1-2.66-1.95,7.93,7.93,0,0,1-1.41-3.26,22.21,22.21,0,0,1-.41-4.61V151.16l3.33-.62Z" fill="#3f3f3f"/><path d="M670.87,158.33a11.82,11.82,0,0,1,4.44.75,7.77,7.77,0,0,1,3,2,8,8,0,0,1,1.64,3.1,14.31,14.31,0,0,1,.51,3.9v16.72c-.34.1-.84.21-1.48.33l-2.26.39c-.86.13-1.81.25-2.85.33s-2.11.13-3.2.13a14.85,14.85,0,0,1-3.87-.46,8.66,8.66,0,0,1-3.08-1.46,6.82,6.82,0,0,1-2-2.57,8.78,8.78,0,0,1-.75-3.82,7.9,7.9,0,0,1,.82-3.69,7.13,7.13,0,0,1,2.31-2.54,10.37,10.37,0,0,1,3.54-1.46,20.22,20.22,0,0,1,4.46-.46,11.12,11.12,0,0,1,1.51.07c.51.07,1,.12,1.54.21s.93.17,1.29.25a4.91,4.91,0,0,1,.74.24v-1.65A17.32,17.32,0,0,0,677,166a5.8,5.8,0,0,0-.89-2.36,5.11,5.11,0,0,0-2-1.69,7.39,7.39,0,0,0-3.31-.64,17.29,17.29,0,0,0-4.36.41,20.83,20.83,0,0,0-2.1.67l-.46-2.93a13.14,13.14,0,0,1,2.69-.77A24.18,24.18,0,0,1,670.87,158.33Zm.31,24.72a29.38,29.38,0,0,0,3.41-.12,20.7,20.7,0,0,0,2.49-.34v-9.33a11.3,11.3,0,0,0-1.8-.54,16,16,0,0,0-3.38-.28,21.87,21.87,0,0,0-2.56.18,7.41,7.41,0,0,0-2.47.77A5.19,5.19,0,0,0,665,175a4.66,4.66,0,0,0-.72,2.72,5.69,5.69,0,0,0,.49,2.51,3.93,3.93,0,0,0,1.38,1.64,5.87,5.87,0,0,0,2.16.9A12.33,12.33,0,0,0,671.18,183.05Zm7.59-34.61L670,155.57l-1.69-1.95,8.1-7.8Z" fill="#3f3f3f"/><path d="M702.05,158.44a19.09,19.09,0,0,1,3.11.25,10.7,10.7,0,0,1,2,.52l-.66,2.87a8.06,8.06,0,0,0-1.67-.44,20.31,20.31,0,0,0-3.31-.23,16.09,16.09,0,0,0-3.46.31,10,10,0,0,0-1.72.51v23.23H693V160.18a24.38,24.38,0,0,1,3.54-1.15A21.75,21.75,0,0,1,702.05,158.44Z" fill="#3f3f3f"/><path d="M720.41,150.94a2.45,2.45,0,0,1-.71,1.87,2.56,2.56,0,1,1,0-3.74A2.47,2.47,0,0,1,720.41,150.94Zm-.77,34.51h-3.33V158.94h3.33Z" fill="#3f3f3f"/><path d="M755.19,172.23a17.22,17.22,0,0,1-.9,5.7,12.7,12.7,0,0,1-2.52,4.36,11.73,11.73,0,0,1-16.58.8,10.06,10.06,0,0,1-.8-.8,12.68,12.68,0,0,1-2.51-4.36,18.47,18.47,0,0,1,0-11.39,12.86,12.86,0,0,1,2.51-4.38,11.31,11.31,0,0,1,3.82-2.82,12.3,12.3,0,0,1,9.74,0,11.21,11.21,0,0,1,3.82,2.82,12.88,12.88,0,0,1,2.52,4.38A17.24,17.24,0,0,1,755.19,172.23Zm-3.54,0a12.54,12.54,0,0,0-2.31-7.92,8.12,8.12,0,0,0-11.42-1.09,8.63,8.63,0,0,0-1.09,1.09,14.7,14.7,0,0,0,0,15.82,8.16,8.16,0,0,0,11.5,1,8.85,8.85,0,0,0,1-1A12.39,12.39,0,0,0,751.65,172.23Z" fill="#3f3f3f"/><path d="M192.91,111.14a31.61,31.61,0,0,1-11.94-2,21.79,21.79,0,0,1-8.26-5.62A22.76,22.76,0,0,1,167.87,95a35.07,35.07,0,0,1-1.57-10.77V41.94h12.42V83.07a26.13,26.13,0,0,0,1,7.87,13.48,13.48,0,0,0,2.93,5.33,11.8,11.8,0,0,0,4.5,3,16.28,16.28,0,0,0,5.82,1,16.77,16.77,0,0,0,5.87-1,11.68,11.68,0,0,0,4.55-3,13.55,13.55,0,0,0,3-5.33,26.13,26.13,0,0,0,1-7.87V41.94H219.8v42.3A34.12,34.12,0,0,1,218.19,95a23.46,23.46,0,0,1-4.89,8.51,21.73,21.73,0,0,1-8.36,5.62A32.69,32.69,0,0,1,192.91,111.14Z" fill="#3f3f3f"/><path d="M235,60.18a84.19,84.19,0,0,1,8.9-1.86,77.75,77.75,0,0,1,12.1-.88,28.28,28.28,0,0,1,10.47,1.71,16.48,16.48,0,0,1,6.7,4.8,18.29,18.29,0,0,1,3.52,7.43,41.4,41.4,0,0,1,1,9.54v28.75H265.87V82.77a39.17,39.17,0,0,0-.54-7,12.43,12.43,0,0,0-1.76-4.69,7.07,7.07,0,0,0-3.32-2.64,14.08,14.08,0,0,0-5.14-.84,40.87,40.87,0,0,0-4.69.3c-1.63.19-2.84.36-3.62.49v41.28H235Z" fill="#3f3f3f"/><path d="M305.39,43.55a6.79,6.79,0,0,1-2.15,5.28,7.29,7.29,0,0,1-5.09,2,7.38,7.38,0,0,1-5.18-2,6.77,6.77,0,0,1-2.16-5.28A6.9,6.9,0,0,1,293,38.17a7.59,7.59,0,0,1,10.27,0A6.93,6.93,0,0,1,305.39,43.55Zm-1.27,66.12H292.28V58.52h11.84Z" fill="#3f3f3f"/><path d="M338.45,41.21q14.67,0,22.44,5.37T368.67,63q0,13.8-13.6,18.68c1.24,1.5,2.65,3.32,4.21,5.48s3.16,4.48,4.79,7,3.2,5.09,4.7,7.73,2.84,5.23,4,7.77H359c-1.24-2.34-2.58-4.71-4-7.09s-2.89-4.69-4.36-6.94-2.91-4.37-4.35-6.36-2.77-3.77-4-5.33c-.91.06-1.69.1-2.35.1h-7.82v25.61H319.76V42.87a67.42,67.42,0,0,1,9.59-1.32C332.74,41.33,335.78,41.21,338.45,41.21Zm.88,10.66c-2.61,0-5,.09-7.24.29V74.07h5.38a55.23,55.23,0,0,0,7.92-.49,16.41,16.41,0,0,0,5.72-1.76,8.68,8.68,0,0,0,3.48-3.42,11.33,11.33,0,0,0,1.17-5.46,10.88,10.88,0,0,0-1.17-5.28,8.84,8.84,0,0,0-3.38-3.43A16.35,16.35,0,0,0,346,52.4a40.27,40.27,0,0,0-6.67-.53Z" fill="#3f3f3f"/><path d="M382.36,109.67V41.94h43.53V52.36h-31.2V69.08h27.78V79.35H394.69V99.21h33.55v10.46Z" fill="#3f3f3f"/><path d="M497.2,75.73A39.46,39.46,0,0,1,494.46,91a29,29,0,0,1-7.78,10.9,32.12,32.12,0,0,1-12.13,6.45,54.8,54.8,0,0,1-15.7,2.11c-2.74,0-5.83-.12-9.29-.35a60.92,60.92,0,0,1-9.88-1.41V42.87a59.11,59.11,0,0,1,10-1.37c3.52-.2,6.65-.29,9.39-.29a56.73,56.73,0,0,1,15.55,2,32.15,32.15,0,0,1,12.08,6.26,28.29,28.29,0,0,1,7.78,10.76A39.9,39.9,0,0,1,497.2,75.73ZM452,99.5c.71.07,1.66.12,2.83.15s2.77,0,4.8,0q12.42,0,18.53-6.31t6.11-17.66q0-11.52-6-17.7t-18.49-6.16a72.91,72.91,0,0,0-7.82.29Z" fill="#3f3f3f"/><path d="M507.76,109.67V41.94h43.53V52.36H520.08V69.08h27.78V79.35H520.08V99.21h33.55v10.46Z" fill="#3f3f3f"/><path d="M610.76,109.67q-3.33-5.57-7.44-12t-8.51-12.91q-4.39-6.51-8.95-12.62t-8.65-11v48.53H565.08V41.94h10.07q3.92,4.11,8.41,9.73t9.05,11.69q4.54,6.06,8.8,12.18T609,86.88V41.94h12.23v67.73Z" fill="#3f3f3f"/><path d="M682.74,41.94V52.55H661.91v57.12H649.49V52.55H628.65V41.94Z" fill="#3f3f3f"/><path d="M749.84,75.73a42.09,42.09,0,0,1-2.59,15.36,31.65,31.65,0,0,1-7,11.1,29,29,0,0,1-10.46,6.75,35.55,35.55,0,0,1-12.71,2.25,35.92,35.92,0,0,1-12.77-2.25,28.73,28.73,0,0,1-10.46-6.7,32.17,32.17,0,0,1-7.09-11.1,41.48,41.48,0,0,1-2.64-15.36,41,41,0,0,1,2.64-15.3A32,32,0,0,1,694,49.32a30,30,0,0,1,10.51-6.75,36.52,36.52,0,0,1,25.24,0,29.11,29.11,0,0,1,10.41,6.75,32.94,32.94,0,0,1,7.09,11.11A41,41,0,0,1,749.84,75.73Zm-52.91,0a35,35,0,0,0,1.37,10.13,22.05,22.05,0,0,0,4,7.72,17.8,17.8,0,0,0,6.31,4.94,19.28,19.28,0,0,0,8.39,1.76,18.91,18.91,0,0,0,8.31-1.76,17.8,17.8,0,0,0,6.31-4.94,22.05,22.05,0,0,0,4-7.72A35,35,0,0,0,737,75.73a35,35,0,0,0-1.37-10.12,22.27,22.27,0,0,0-4-7.73,18,18,0,0,0-6.33-4.94,20.73,20.73,0,0,0-16.72,0,17.9,17.9,0,0,0-6.31,5,22.71,22.71,0,0,0-4,7.73,34.23,34.23,0,0,0-1.33,10.06Z" fill="#3f3f3f"/><path d="M780.07,41.21q14.67,0,22.45,5.37T810.29,63q0,13.8-13.59,18.68c1.23,1.5,2.64,3.32,4.2,5.48s3.16,4.48,4.8,7,3.19,5.09,4.69,7.73,2.84,5.23,4,7.77H800.61c-1.24-2.34-2.58-4.71-4-7.09s-2.89-4.69-4.35-6.94-2.92-4.37-4.36-6.36-2.77-3.77-4-5.33c-.91.06-1.69.1-2.34.1h-7.83v25.61H761.39V42.87A67.7,67.7,0,0,1,771,41.55C774.37,41.33,777.4,41.21,780.07,41.21ZM781,51.87c-2.61,0-5,.09-7.24.29V74.07h5.38a55.23,55.23,0,0,0,7.92-.49,16.53,16.53,0,0,0,5.73-1.76,8.59,8.59,0,0,0,3.47-3.42,11.43,11.43,0,0,0,1.12-5.46,10.88,10.88,0,0,0-1.17-5.28,8.77,8.77,0,0,0-3.38-3.43,16.26,16.26,0,0,0-5.23-1.81A39.46,39.46,0,0,0,781,51.87Z" fill="#3f3f3f"/><path d="M121.62,159.46c2.27-2.92,4.27-5.73,6-8.37C125.89,153.73,123.89,156.54,121.62,159.46Z" fill="#3f3f3f"/><path d="M137.22,99.06v.07h-67v99.31c24.83-9.82,41.59-26.52,51.36-39-1.64,2.08-3.49,4.29-5.52,6.57l-.06-.07-1.36-3.85a7,7,0,0,0-11.48-2.62l-3,3a1.29,1.29,0,0,1-1.67.12L92.31,158a1.3,1.3,0,0,1-.31-1.59l1.76-3.68a7,7,0,0,0-6.26-10H83.19a1.28,1.28,0,0,1-1.26-1.08l-1.15-7.61a1.29,1.29,0,0,1,.84-1.4l3.86-1.36a6.94,6.94,0,0,0,4.26-8.84,7.06,7.06,0,0,0-1.65-2.62l-3-3a1.3,1.3,0,0,1-.09-1.66L89.56,109a1.29,1.29,0,0,1,1.59-.39l4.71,2.32a7.68,7.68,0,0,0,2.35.65,25.66,25.66,0,0,0-3.57,17.31c2.21,14.68,16.7,24.67,32.35,22.3a4.1,4.1,0,0,0,.7-.12,110.39,110.39,0,0,0,9.56-17.17V99.06Z" fill="#3f3f3f"/><path d="M4.62,61.69H0V95.94H12.14c-.48-11.31-1.24-26.45-1.92-29.19C9.1,62.26,6.67,61.69,4.62,61.69Z" fill="#3f3f3f"/><path d="M0,23.94V51.88H10.22s4.11-.38,4.11-3.55S14,37.75,19.45,37.51h.47c5.47.24,5.08,7.73,5.08,10.82s4.11,3.55,4.11,3.55h33.1A3.84,3.84,0,0,1,58.48,55c-3.18,0-3.92-.81-7.29,3.3S44,61.69,44,61.69H34.75c-2,0-4.48.57-5.6,5-.69,2.74-1.44,17.88-1.93,29.19H67V23.94Z" fill="#3f3f3f"/><path d="M115.49,82.48l-2.36-.54v6.67C117.37,87,122,84.11,115.49,82.48Z" fill="#3f3f3f"/><path d="M70.26,23.94v72h67v-72Zm42.87,45.15V76.5c6.49,1.68,11.92,3.87,11.92,7.35,0,4-6.32,6.41-11.92,8v4.09h-4.86V93.08c-1.2.3-2.19.56-2.81.79a23.3,23.3,0,0,0-4.11,2H95.17a17.57,17.57,0,0,1,4.29-3.48,19.58,19.58,0,0,1,5.09-1.82l3.72-.7v-9.2C99,78.3,86.34,74.38,81.09,67.94c-6.84-8.42-5.24-18.68-.68-24.15s16.17-8.87,25-4.55,10.48,11.39,8.43,13a4.36,4.36,0,0,1-5.62-.69c-2.58-2.73-5.08-8-13.51-7.28s-10,5.91-10.48,11.16,3.41,15,13,17.53c3.07.81,7,1.57,11,2.44V69c-16.8-1.23-17.62-11.72-17.62-11.72h41.92S131.7,68.5,113.13,69.09Z" fill="#3f3f3f"/><path d="M4.09,139.22h.13l11.47-1.36a16.18,16.18,0,0,1,6,.46,1.1,1.1,0,0,0,.59-2.12h0a18.1,18.1,0,0,0-6.87-.51L4,137a1.1,1.1,0,0,0-1,1.17,1.08,1.08,0,0,0,1.16,1Z" fill="#3f3f3f"/><path d="M27.69,132.48a1.11,1.11,0,0,0,1.36.78,16.18,16.18,0,0,1,6-.45l11.48,1.35h.13a1.09,1.09,0,0,0,1.08-1.11,1.11,1.11,0,0,0-1-1.08l-11.48-1.35a18.51,18.51,0,0,0-6.87.51A1.12,1.12,0,0,0,27.69,132.48Z" fill="#3f3f3f"/><path d="M.12,99.13v-.07h0v22.57h.1l15.28-1.81a18.25,18.25,0,0,1,10,1.67,18.25,18.25,0,0,1,10-1.67l15.29,1.81a1.09,1.09,0,0,1,1,1.1v2.49h2.64a1.11,1.11,0,0,1,1.11,1.09h0v36.07a1.1,1.1,0,0,1-1.11,1.09H19c-.64-.74-1.25-1.48-1.84-2.2h36V127.39H51.61v30.3a1.08,1.08,0,0,1-1.08,1.1h-.14l-15.28-1.85a16,16,0,0,0-9.2,1.7,1,1,0,0,1-1,0,16,16,0,0,0-9.19-1.7l-1.72.22c-2.2-2.94-4.11-5.75-5.77-8.35L15.7,148a16.18,16.18,0,0,1,6,.44,1.1,1.1,0,0,0,.57-2.13h0a18.3,18.3,0,0,0-6.87-.5l-8.5,1c-.56-.92-1.09-1.8-1.58-2.66l10.37-1.16a16.4,16.4,0,0,1,6,.46,1.1,1.1,0,0,0,.57-2.13,18.51,18.51,0,0,0-6.87-.51L4.17,142.05c-2.38-4.29-3.71-7.31-4.1-8.19a122.91,122.91,0,0,0,15.65,25.6c9.76,12.46,26.52,29.16,51.35,39V99.13Z" fill="#3f3f3f"/><path d="M4.09,134.16h.13l11.47-1.35a16.18,16.18,0,0,1,6,.45,1.1,1.1,0,0,0,.57-2.13h0a18.51,18.51,0,0,0-6.87-.51L4,131.94a1.1,1.1,0,0,0-.94,1.24,1.09,1.09,0,0,0,1.07.95Z" fill="#3f3f3f"/><path d="M4.09,129.12h.13l11.47-1.34a16,16,0,0,1,6,.45,1.1,1.1,0,0,0,.57-2.13h0a17.88,17.88,0,0,0-6.87-.5L4,126.94a1.1,1.1,0,0,0-1,1.17.11.11,0,0,1,0,0A1.1,1.1,0,0,0,4.09,129.12Z" fill="#3f3f3f"/><path d="M27.69,147.64a1.11,1.11,0,0,0,1.36.78,15.77,15.77,0,0,1,6-.44l11.48,1.33h.13a1.09,1.09,0,0,0,1.08-1.11,1.11,1.11,0,0,0-1-1.08l-11.48-1.34a18.3,18.3,0,0,0-6.87.5A1.12,1.12,0,0,0,27.69,147.64Z" fill="#3f3f3f"/><path d="M27.69,142.6a1.11,1.11,0,0,0,1.36.77,16.18,16.18,0,0,1,6-.46l11.48,1.35h.13a1.1,1.1,0,0,0,1.17-1,1.11,1.11,0,0,0-1-1.17h0l-11.48-1.34a18.72,18.72,0,0,0-6.87.5A1.14,1.14,0,0,0,27.69,142.6Z" fill="#3f3f3f"/><path d="M29.05,128.21a15.57,15.57,0,0,1,6-.45l11.48,1.34h.13a1.1,1.1,0,0,0,1.09-1,1.09,1.09,0,0,0-1-1.21h0l-11.48-1.34a17.9,17.9,0,0,0-6.87.5,1.11,1.11,0,0,0-.78,1.35,1.13,1.13,0,0,0,1.34.85Z" fill="#3f3f3f"/><path d="M27.69,137.54a1.13,1.13,0,0,0,1.36.78,16,16,0,0,1,6-.46l11.48,1.36h.13a1.1,1.1,0,0,0,1.17-1,1.11,1.11,0,0,0-1-1.17h0l-11.48-1.34a17.89,17.89,0,0,0-6.87.51A1.1,1.1,0,0,0,27.69,137.54Z" fill="#3f3f3f"/></svg>